<svg width="469" height="512" viewBox="0 0 469 512" fill="none" xmlns="http://www.w3.org/2000/svg">
<path d="M326.495 483.563C289.61 483.563 256.906 468.416 234.42 454.229C211.914 468.416 179.231 483.563 142.346 483.563C77.8763 483.563 26.6763 437.184 24.543 435.2C22.3456 433.195 21.087 430.336 21.087 427.349C21.087 424.341 22.3456 421.525 24.543 419.499C25.887 418.24 52.831 393.835 91.935 380.203C81.8656 373.397 72.735 365.867 64.5856 357.717C4.61764 297.749 0.158976 206.933 0.00964309 203.093C-0.118357 200.128 1.03364 197.227 3.12431 195.115C5.25764 193.003 8.15898 191.765 11.1243 192C13.9403 192.128 73.4603 195.115 127.988 227.648C127.839 224.576 127.754 221.589 127.754 218.667C127.754 100.629 222.943 6.93333 226.996 3.008C231.114 -1.00267 237.706 -1.00267 241.823 3.008C245.898 6.93333 341.087 100.629 341.087 218.667C341.087 221.589 341.002 224.576 340.852 227.648C395.38 195.115 454.9 192.128 457.716 192C460.81 191.765 463.583 193.003 465.716 195.115C467.828 197.227 468.959 200.128 468.831 203.115C468.66 206.955 464.202 297.771 404.255 357.739C396.106 365.888 386.954 373.397 376.906 380.224C416.01 393.856 442.954 418.261 444.298 419.52C446.495 421.525 447.754 424.363 447.754 427.349C447.754 430.336 446.495 433.173 444.319 435.2C442.164 437.184 390.986 483.563 326.495 483.563ZM234.42 430.827C236.511 430.827 238.58 431.424 240.372 432.64C260.383 446.144 291.572 462.229 326.495 462.229C367.37 462.229 403.38 439.701 420.063 427.349C406.324 417.195 379.53 400.192 347.722 394.475C343.22 393.664 339.722 390.08 339.06 385.557C338.378 381.035 340.66 376.576 344.735 374.485C361.951 365.632 376.906 354.901 389.172 342.635C431.007 300.8 442.996 240.299 446.324 214.549C423.711 217.515 374.346 227.221 334.474 257.664C331.018 260.288 326.324 260.565 322.591 258.389C318.858 256.192 316.81 251.968 317.428 247.68C319.007 236.48 319.754 227.264 319.754 218.667C319.754 128.277 256.436 50.496 234.42 26.176C212.404 50.496 149.087 128.277 149.087 218.667C149.087 227.264 149.834 236.48 151.412 247.701C152.01 251.989 149.983 256.213 146.25 258.411C142.516 260.587 137.823 260.309 134.367 257.685C94.3883 227.157 45.1083 217.493 22.5376 214.571C25.887 240.341 37.9616 300.949 79.6683 342.656C91.935 354.923 106.89 365.653 124.106 374.507C128.159 376.597 130.463 381.056 129.78 385.579C129.119 390.101 125.62 393.685 121.119 394.496C89.3323 400.213 62.5163 417.216 48.7776 427.371C65.439 439.723 101.471 462.251 142.346 462.251C177.268 462.251 208.458 446.165 228.468 432.661C230.26 431.445 232.33 430.827 234.42 430.827Z" fill="#D15933"/>
<path d="M234.421 511.105C228.533 511.105 223.754 506.326 223.754 500.438V184.001C223.754 178.113 228.533 173.334 234.421 173.334C240.309 173.334 245.087 178.113 245.087 184.001V500.438C245.087 506.326 240.309 511.105 234.421 511.105Z" fill="#D15933"/>
<path d="M233.971 437.782C231.241 437.782 228.51 436.736 226.419 434.667L141.534 349.782C137.374 345.622 137.374 338.859 141.534 334.699C145.694 330.539 152.457 330.539 156.617 334.699L233.971 412.032L311.753 334.251C315.913 330.091 322.675 330.091 326.835 334.251C330.995 338.411 330.995 345.174 326.835 349.334L241.502 434.667C239.433 436.736 236.702 437.782 233.971 437.782Z" fill="#D15933"/>
</svg>
