<svg width="478" height="478" viewBox="0 0 478 478" fill="none" xmlns="http://www.w3.org/2000/svg">
<path d="M392.533 238.937C383.107 238.937 375.466 246.578 375.466 256.004V426.67C375.466 436.096 367.825 443.737 358.399 443.737H51.2C41.774 443.737 34.133 436.096 34.133 426.67V85.3372C34.133 75.9112 41.774 68.2702 51.2 68.2702H256C265.426 68.2702 273.067 60.6292 273.067 51.2032C273.067 41.7772 265.426 34.1372 256 34.1372H51.2C22.923 34.1372 0 57.0602 0 85.3372V426.67C0 454.947 22.923 477.87 51.2 477.87H358.4C386.677 477.87 409.6 454.947 409.6 426.67V256.003C409.6 246.578 401.959 238.937 392.533 238.937Z" fill="#303030"/>
<path d="M458.742 19.1422C446.488 6.88618 429.867 0.00217626 412.536 0.00417626C395.195 -0.0458237 378.557 6.85017 366.337 19.1532L141.534 243.937C139.669 245.816 138.262 248.1 137.421 250.61L103.288 353.01C100.309 361.953 105.144 371.617 114.087 374.595C115.822 375.173 117.639 375.468 119.467 375.47C121.299 375.467 123.12 375.173 124.86 374.6L227.26 340.467C229.775 339.627 232.06 338.213 233.933 336.337L458.735 111.535C484.25 86.0232 484.253 44.6572 458.742 19.1422ZM434.603 87.4192L212.736 309.286L146.449 331.421L168.516 265.219L390.468 43.3532C402.67 31.1752 422.435 31.1952 434.613 43.3972C440.43 49.2262 443.708 57.1172 443.733 65.3522C443.754 73.6312 440.467 81.5752 434.603 87.4192Z" fill="#303030"/>
</svg>
