<svg width="272" height="262" viewBox="0 0 272 262" fill="none" xmlns="http://www.w3.org/2000/svg">
<path d="M263.131 139.869H91.6517C86.7557 139.869 82.7821 135.896 82.7821 131C82.7821 126.104 86.7557 122.13 91.6517 122.13H263.131C268.027 122.13 272.001 126.104 272.001 131C272.001 135.896 268.027 139.869 263.131 139.869Z" fill="#303030"/>
<path d="M138.957 187.173C136.686 187.173 134.416 186.311 132.688 184.572L85.3848 137.269C81.9201 133.802 81.9201 128.185 85.3848 124.72L132.688 77.4166C136.153 73.952 141.77 73.952 145.237 77.4166C148.702 80.8813 148.702 86.4984 145.237 89.9631L104.2 131L145.237 172.037C148.702 175.502 148.702 181.119 145.237 184.583C143.498 186.311 141.227 187.173 138.957 187.173Z" fill="#303030"/>
<path d="M130.088 261.087C58.3624 261.087 0 202.725 0 131C0 59.2745 58.3624 0.912109 130.088 0.912109C183.907 0.912109 231.425 33.2917 251.163 83.4125C252.96 87.9642 250.712 93.1092 246.161 94.9174C241.607 96.693 236.462 94.48 234.654 89.9044C217.612 46.6198 176.564 18.6512 130.088 18.6512C68.1415 18.6512 17.7391 69.0557 17.7391 131C17.7391 192.944 68.1415 243.348 130.088 243.348C176.564 243.348 217.612 215.38 234.654 172.108C236.451 167.53 241.596 165.32 246.161 167.093C250.712 168.89 252.96 174.046 251.163 178.6C231.425 228.708 183.907 261.087 130.088 261.087Z" fill="#303030"/>
</svg>
