<svg width="172" height="188" viewBox="0 0 172 188" fill="none" xmlns="http://www.w3.org/2000/svg">
<path d="M171.5 108C171.5 151.873 133.255 187.5 86 187.5C38.745 187.5 0.5 151.873 0.5 108C0.5 64.1268 38.745 28.5 86 28.5C133.255 28.5 171.5 64.1268 171.5 108Z" fill="#767676" stroke="black"/>
<path d="M54 81.5C53.6 83.5 32.8333 140.833 29 146.5L155 149L125.5 4L104.5 60.5L91.5 101L72 70.5L60 55C58.1667 63 54.4 79.5 54 81.5Z" fill="#BABCAB" stroke="black" stroke-width="2"/>
<path d="M22 92.5L36 73L47 90.5H39.5L53.5 107.5H39.5L52 143H5L31 124H7.5L31 107.5H16.5L31 92.5H22Z" fill="#606338" stroke="black" stroke-width="2"/>
<path d="M20 151L23.5 136.5L30 127L43 114L58 107L72.5 104L89.5 107L109 114L126 131L132 144.5L135 149L89.5 155L20 151Z" fill="#D38324"/>
<path d="M72.5 104L58 107L43 114L30 127L23.5 136.5L20 151L89.5 155M72.5 104L89.5 107L109 114L126 131L132 144.5L135 149L89.5 155M72.5 104L81.5 109L85 119L88 132.5L89.5 144.5V155" stroke="black" stroke-width="2"/>
</svg>
