<svg width="512" height="512" viewBox="0 0 512 512" fill="none" xmlns="http://www.w3.org/2000/svg">
<path d="M496.924 219.545C488.507 211.128 471.134 192.457 439.592 179.947C450.175 155.43 452.136 135.893 452.136 111.418C452.136 82.9914 429.009 59.8635 400.581 59.8635C388.73 59.8635 363.237 58.9468 332.052 72.4076C322.009 47.0839 309.266 31.8897 292.454 15.0758C272.352 -5.02525 239.646 -5.02525 219.544 15.0758C211.07 23.5514 192.442 40.9022 179.947 72.4066C155.43 61.8239 135.894 59.8624 111.418 59.8624C82.9903 59.8624 59.8635 82.9903 59.8635 111.417C59.8635 122.142 58.7413 148.285 72.4076 179.946C47.0385 190.007 31.8402 202.781 15.0758 219.544C-5.02525 239.645 -5.02525 272.352 15.0758 292.453C23.4925 300.87 40.865 319.541 72.4076 332.051C61.825 356.569 59.8635 376.105 59.8635 400.58C59.8635 429.007 82.9903 452.135 111.418 452.135C122.144 452.135 148.286 453.257 179.947 439.591C189.991 464.916 202.733 480.11 219.545 496.923C239.647 517.025 272.354 517.023 292.455 496.923C300.881 488.497 319.545 471.129 332.053 439.592C356.571 450.175 376.107 452.136 400.582 452.136C429.01 452.136 452.137 429.008 452.137 400.581C452.137 389.856 453.259 363.714 439.593 332.052C464.962 321.991 480.16 309.218 496.925 292.454C517.025 272.353 517.025 239.647 496.924 219.545ZM400.581 92.8989C410.793 92.8989 419.101 101.206 419.101 111.418C419.101 122.619 420.011 144.596 407.324 171.097C383.671 167.326 358.921 169.004 335.261 176.739C342.612 154.251 344.87 129.563 340.903 104.676C365.732 92.7884 385.783 92.8989 400.581 92.8989ZM256 292.012C236.142 292.012 219.987 275.857 219.987 256C219.987 236.142 236.142 219.987 256 219.987C275.857 219.987 292.012 236.142 292.012 256C292.012 275.857 275.856 292.012 256 292.012ZM237.447 43.8929L242.904 38.4359C250.125 31.2156 261.874 31.2156 269.094 38.4359L274.552 43.894C315.4 84.7412 320.901 148.8 289.62 195.724C284.31 192.749 278.571 190.458 272.517 188.966V153.08C272.517 143.958 265.122 136.562 256 136.562C246.878 136.562 239.482 143.958 239.482 153.08V188.966C233.428 190.458 227.689 192.749 222.379 195.724C191.098 148.799 196.599 84.7402 237.447 43.8929ZM92.8978 111.418C92.8978 101.206 101.205 92.8989 111.417 92.8989C122.619 92.8989 144.596 91.9883 171.096 104.675C167.333 128.278 168.987 153.027 176.736 176.736C154.26 169.389 129.57 167.126 104.675 171.096C92.7874 146.268 92.8978 126.216 92.8978 111.418ZM38.4349 269.095C31.2135 261.875 31.2135 250.126 38.4349 242.904L43.8919 237.447C84.7402 196.599 148.798 191.098 195.722 222.379C192.747 227.69 190.455 233.429 188.964 239.482H153.079C143.957 239.482 136.561 246.878 136.561 256C136.561 265.122 143.957 272.517 153.079 272.517H188.964C190.455 278.571 192.747 284.31 195.722 289.62C148.798 320.901 84.7402 315.399 43.8919 274.552L38.4349 269.095ZM111.417 419.102C101.205 419.102 92.8978 410.794 92.8978 400.582C92.8978 389.381 91.9873 367.404 104.675 340.904C128.833 344.755 153.53 342.845 176.739 335.257C169.386 357.746 167.127 382.435 171.096 407.325C146.267 419.212 126.215 419.102 111.417 419.102ZM274.551 468.108L269.094 473.565C261.874 480.785 250.125 480.785 242.904 473.565L237.446 468.107C196.598 427.259 191.098 363.201 222.378 316.277C227.688 319.251 233.427 321.543 239.481 323.035V358.92C239.481 368.042 246.877 375.438 255.999 375.438C265.121 375.438 272.516 368.042 272.516 358.92V323.035C278.57 321.543 284.309 319.251 289.619 316.277C320.901 363.202 315.399 427.26 274.551 468.108ZM419.101 400.582C419.101 410.794 410.793 419.102 400.581 419.102C389.379 419.102 367.402 420.012 340.903 407.325C344.674 383.669 342.996 358.922 335.26 335.258C358.416 342.828 383.112 344.764 407.324 340.903C419.211 365.733 419.101 385.784 419.101 400.582ZM473.565 269.095L468.108 274.552C427.258 315.399 363.201 320.901 316.278 289.62C319.252 284.31 321.544 278.571 323.036 272.517H358.92C368.042 272.517 375.438 265.122 375.438 256C375.438 246.878 368.042 239.482 358.92 239.482H323.036C321.544 233.428 319.252 227.689 316.278 222.379C363.202 191.099 427.259 196.6 468.108 237.447L473.565 242.904C480.785 250.126 480.785 261.875 473.565 269.095Z" fill="#606338"/>
</svg>
