<svg width="512" height="512" viewBox="0 0 512 512" fill="none" xmlns="http://www.w3.org/2000/svg">
<path d="M256 117C179.355 117 117 179.355 117 256C117 332.645 179.355 395 256 395C332.645 395 395 332.645 395 256C395 179.355 332.645 117 256 117ZM256 365C195.897 365 147 316.103 147 256C147 195.897 195.897 147 256 147C316.103 147 365 195.897 365 256C365 316.103 316.103 365 256 365Z" fill="#D38324"/>
<path d="M256 81.643C264.284 81.643 271 74.927 271 66.643V15C271 6.716 264.284 0 256 0C247.716 0 241 6.716 241 15V66.643C241 74.927 247.716 81.643 256 81.643Z" fill="#D38324"/>
<path d="M497 241H445.357C437.073 241 430.357 247.716 430.357 256C430.357 264.284 437.073 271 445.357 271H497C505.284 271 512 264.284 512 256C512 247.716 505.284 241 497 241Z" fill="#D38324"/>
<path d="M256 430.357C247.716 430.357 241 437.073 241 445.357V497C241 505.284 247.716 512 256 512C264.284 512 271 505.284 271 497V445.357C271 437.073 264.284 430.357 256 430.357Z" fill="#D38324"/>
<path d="M81.643 256C81.643 247.716 74.927 241 66.643 241H15C6.716 241 0 247.716 0 256C0 264.284 6.716 271 15 271H66.643C74.927 271 81.643 264.284 81.643 256Z" fill="#D38324"/>
<path d="M389.895 137.103C393.734 137.103 397.573 135.639 400.501 132.709L437.018 96.1924C442.876 90.3344 442.876 80.8374 437.018 74.9794C431.161 69.1214 421.663 69.1214 415.805 74.9794L379.288 111.496C373.43 117.354 373.43 126.851 379.288 132.709C382.218 135.639 386.057 137.103 389.895 137.103Z" fill="#D38324"/>
<path d="M400.501 379.289C394.644 373.432 385.146 373.432 379.288 379.289C373.43 385.147 373.43 394.644 379.288 400.502L415.806 437.019C418.735 439.948 422.574 441.412 426.412 441.412C430.25 441.412 434.09 439.947 437.018 437.018C442.876 431.16 442.876 421.663 437.018 415.805L400.501 379.289Z" fill="#D38324"/>
<path d="M111.496 379.288L74.9794 415.805C69.1214 421.663 69.1214 431.16 74.9794 437.018C77.9084 439.947 81.7474 441.412 85.5854 441.412C89.4234 441.412 93.2634 439.948 96.1914 437.018L132.708 400.501C138.566 394.643 138.566 385.146 132.708 379.288C126.852 373.43 117.353 373.43 111.496 379.288Z" fill="#D38324"/>
<path d="M111.497 132.709C114.426 135.638 118.265 137.103 122.103 137.103C125.941 137.103 129.781 135.639 132.709 132.709C138.567 126.851 138.567 117.354 132.709 111.496L96.1924 74.9794C90.3354 69.1214 80.8374 69.1214 74.9794 74.9794C69.1214 80.8374 69.1214 90.3344 74.9794 96.1924L111.497 132.709Z" fill="#D38324"/>
<path d="M322.913 94.9933C324.796 95.7753 326.745 96.1453 328.664 96.1453C334.543 96.1453 340.124 92.6663 342.521 86.8973L362.339 39.2093C365.518 31.5593 361.894 22.7803 354.244 19.6013C346.595 16.4233 337.816 20.0453 334.636 27.6963L314.818 75.3843C311.64 83.0353 315.264 91.8143 322.913 94.9933Z" fill="#D38324"/>
<path d="M484.304 334.637L436.616 314.819C428.965 311.64 420.187 315.263 417.008 322.914C413.829 330.564 417.453 339.343 425.103 342.522L472.791 362.34C474.674 363.122 476.623 363.492 478.542 363.492C484.421 363.492 490.002 360.013 492.399 354.244C495.578 346.595 491.954 337.816 484.304 334.637Z" fill="#D38324"/>
<path d="M189.088 417.008C181.437 413.83 172.659 417.452 169.48 425.103L149.662 472.791C146.483 480.441 150.107 489.22 157.757 492.399C159.64 493.181 161.589 493.551 163.508 493.551C169.387 493.551 174.968 490.072 177.365 484.303L197.183 436.615C200.361 428.966 196.737 420.187 189.088 417.008Z" fill="#D38324"/>
<path d="M27.6966 177.364L75.3846 197.182C77.2676 197.964 79.2166 198.334 81.1356 198.334C87.0146 198.334 92.5956 194.855 94.9926 189.086C98.1716 181.436 94.5476 172.657 86.8976 169.478L39.2096 149.661C31.5596 146.484 22.7806 150.106 19.6016 157.756C16.4226 165.406 20.0466 174.185 27.6966 177.364Z" fill="#D38324"/>
<path d="M417.162 189.464C419.551 195.249 425.141 198.744 431.033 198.744C432.94 198.744 434.879 198.378 436.751 197.605L484.485 177.898C492.142 174.737 495.788 165.967 492.627 158.309C489.465 150.651 480.693 147.007 473.038 150.168L425.304 169.875C417.646 173.037 414.001 181.807 417.162 189.464Z" fill="#D38324"/>
<path d="M342.124 425.305C338.963 417.647 330.191 414.004 322.535 417.164C314.877 420.325 311.232 429.095 314.393 436.753L334.1 484.488C336.489 490.273 342.079 493.768 347.971 493.768C349.878 493.768 351.817 493.402 353.689 492.629C361.347 489.468 364.992 480.697 361.831 473.04L342.124 425.305Z" fill="#D38324"/>
<path d="M94.8371 322.535C91.6761 314.878 82.9081 311.231 75.2481 314.394L27.5131 334.101C19.8561 337.262 16.2101 346.032 19.3711 353.69C21.7601 359.475 27.3491 362.97 33.2421 362.97C35.1481 362.97 37.0881 362.604 38.9601 361.831L86.6951 342.124C94.3531 338.962 97.9981 330.192 94.8371 322.535Z" fill="#D38324"/>
<path d="M169.875 86.6954C172.264 92.4804 177.854 95.9754 183.746 95.9754C185.653 95.9754 187.592 95.6094 189.464 94.8364C197.122 91.6754 200.767 82.9054 197.606 75.2474L177.899 27.5124C174.737 19.8544 165.965 16.2104 158.31 19.3714C150.652 22.5324 147.007 31.3034 150.168 38.9604L169.875 86.6954Z" fill="#D38324"/>
</svg>
