<svg width="356" height="377" viewBox="0 0 356 377" fill="none" xmlns="http://www.w3.org/2000/svg">
<path d="M348.398 265.177L307.161 243.069L342.897 223.502C349.488 219.893 351.68 212.006 347.794 205.886C343.907 199.767 335.415 197.731 328.822 201.338L279.595 228.292L205.373 188.499L279.582 148.713L328.824 175.663C331.031 176.873 333.455 177.445 335.845 177.445C340.589 177.445 345.209 175.181 347.794 171.111C351.679 164.99 349.484 157.103 342.893 153.494L307.151 133.934L348.398 111.822C355.024 108.269 357.294 100.401 353.469 94.2478C349.643 88.0932 341.169 85.985 334.543 89.5392L293.306 111.648L292.931 73.12C292.863 66.015 286.585 60.2738 278.952 60.3715C271.301 60.435 265.153 66.2466 265.223 73.3515L265.739 126.426L191.52 166.217V86.642L241.281 60.5276C247.942 57.0317 250.29 49.1841 246.525 42.9968C242.76 36.8113 234.307 34.6294 227.646 38.1269L191.52 57.0866V12.8651C191.52 5.76012 185.317 0 177.665 0C170.014 0 163.811 5.76012 163.811 12.8651V57.0866L127.685 38.1287C121.02 34.6311 112.572 36.8113 108.806 42.9985C105.041 49.1841 107.389 57.0335 114.05 60.5293L163.809 86.6437V166.217L89.5901 126.426L90.1055 73.3515C90.1757 66.2466 84.0279 60.435 76.3764 60.3715C76.3339 60.3715 76.2933 60.3715 76.249 60.3715C68.6566 60.3715 62.4663 66.0545 62.3979 73.1217L62.0229 111.648L20.7858 89.5392C14.1596 85.985 5.68604 88.0949 1.86029 94.2478C-1.96545 100.401 0.304872 108.269 6.93111 111.822L48.1756 133.934L12.4287 153.498C5.83752 157.105 3.64293 164.992 7.52779 171.114C10.1122 175.185 14.7322 177.449 19.4779 177.449C21.8683 177.449 24.2901 176.874 26.4995 175.667L75.7465 148.717L149.958 188.503L75.7336 228.295L26.4995 201.337C19.912 197.729 11.4145 199.764 7.52779 205.884C3.64109 212.004 5.83382 219.892 12.425 223.499L48.1664 243.068L6.92927 265.175C0.303026 268.727 -1.9673 276.596 1.85845 282.749C4.42434 286.876 9.08136 289.183 13.8695 289.183C16.2193 289.183 18.6023 288.627 20.784 287.457L62.0211 265.348L62.3961 303.878C62.4645 310.944 68.6547 316.628 76.2471 316.628C76.2896 316.628 76.3321 316.628 76.3746 316.627C84.0261 316.563 90.1739 310.752 90.1037 303.647L89.5883 250.571L163.809 210.78V290.356L114.05 316.471C107.389 319.967 105.041 327.814 108.806 334.001C111.353 338.187 116.047 340.539 120.88 340.539C123.189 340.539 125.531 340.002 127.685 338.871L163.811 319.913V364.135C163.811 371.24 170.014 377 177.665 377C185.317 377 191.52 371.24 191.52 364.135V319.913L227.646 338.871C229.8 340.002 232.14 340.539 234.451 340.539C239.284 340.539 243.978 338.187 246.525 334.001C250.29 327.816 247.942 319.967 241.281 316.471L191.52 290.356V210.781L265.739 250.571L265.21 303.645C265.138 310.75 271.284 316.563 278.936 316.628C278.98 316.63 279.023 316.63 279.067 316.63C286.658 316.63 292.848 310.947 292.918 303.883L293.302 265.348L334.545 287.459C336.727 288.629 339.11 289.185 341.459 289.185C346.248 289.185 350.905 286.876 353.47 282.75C357.296 276.597 355.026 268.729 348.398 265.177Z" fill="#BABCAB"/>
</svg>
